<?xml version="1.0" standalone="no"?>
<!DOCTYPE svg PUBLIC "-//W3C//DTD SVG 20010904//EN"
 "http://www.w3.org/TR/2001/REC-SVG-20010904/DTD/svg10.dtd">
<svg version="1.0" xmlns="http://www.w3.org/2000/svg"
 width="300.000000pt" height="103.000000pt" viewBox="0 0 300.000000 103.000000"
 preserveAspectRatio="xMidYMid meet">
<metadata>
Created by potrace 1.10, written by Peter Selinger 2001-2011
</metadata>
<g transform="translate(0.000000,103.000000) scale(0.100000,-0.100000)"
fill="#ffffff" stroke="none">
<path d="M2282 1008 c-18 -18 -15 -42 8 -63 17 -15 24 -16 46 -7 21 10 25 18
22 45 -3 27 -7 32 -33 35 -17 2 -36 -3 -43 -10z"/>
<path d="M588 943 c-13 -15 -16 -66 -21 -295 -5 -305 -3 -318 52 -318 59 0 61
8 61 317 0 258 -1 281 -18 296 -24 22 -55 22 -74 0z"/>
<path d="M1416 934 c-14 -13 -16 -54 -16 -295 0 -266 1 -280 20 -299 11 -11
26 -20 32 -20 7 0 50 37 95 82 l83 83 83 -83 c78 -77 85 -82 110 -73 16 6 29
21 33 37 6 23 -3 36 -72 105 l-79 79 83 83 c50 50 82 91 82 103 0 23 -29 54
-51 54 -8 0 -77 -63 -154 -140 -77 -77 -143 -140 -147 -140 -5 0 -8 94 -8 208
0 148 -3 211 -12 220 -17 17 -64 15 -82 -4z"/>
<path d="M2463 929 c-72 -27 -55 -129 22 -129 78 0 90 106 15 132 -8 3 -25 2
-37 -3z"/>
<path d="M2815 863 c-15 -32 -34 -73 -41 -90 l-14 -33 -420 0 c-230 0 -421 -3
-423 -7 -5 -8 95 -352 107 -372 5 -8 99 -11 311 -11 l305 0 14 23 c8 12 56
112 106 221 130 283 111 255 167 245 38 -7 50 -6 62 6 26 25 1 48 -65 62 -32
7 -64 12 -70 13 -7 0 -24 -26 -39 -57z m-221 -209 c9 -3 16 -12 16 -20 0 -8 7
-14 15 -14 8 0 15 -9 15 -20 0 -11 -7 -20 -15 -20 -11 0 -15 -11 -15 -39 0
-31 4 -40 22 -44 18 -5 19 -8 8 -21 -15 -19 -51 -21 -68 -4 -7 7 -12 33 -12
59 0 44 -17 69 -35 51 -3 -4 -14 -7 -23 -7 -13 0 -18 -12 -22 -55 -4 -48 -8
-55 -27 -58 -22 -3 -23 -1 -23 78 l0 81 54 -4 c59 -4 69 -1 79 26 7 19 9 20
31 11z m-348 -60 c10 -14 14 -41 12 -76 -3 -45 -6 -53 -23 -53 -17 0 -21 8
-25 55 -4 40 -9 55 -20 55 -11 0 -16 -15 -20 -55 -4 -47 -8 -55 -25 -55 -17 0
-21 8 -25 55 -4 40 -9 55 -20 55 -11 0 -16 -15 -20 -55 -4 -40 -9 -55 -20 -55
-11 0 -17 17 -22 69 -4 39 -5 73 -3 76 2 4 47 7 100 7 89 0 98 -2 111 -23z
m149 10 c12 -12 15 -32 13 -78 l-3 -61 -49 -2 c-58 -3 -76 9 -76 48 0 30 23
49 59 49 12 0 21 5 21 11 0 8 -12 10 -35 6 -40 -7 -57 10 -30 30 26 18 80 16
100 -3z"/>
<path d="M2337 523 c-12 -11 -8 -23 8 -23 8 0 15 7 15 15 0 16 -12 20 -23 8z"/>
<path d="M230 901 c-147 -48 -222 -145 -224 -287 0 -60 4 -80 29 -130 54 -105
176 -173 290 -161 64 6 143 45 179 87 31 37 31 39 10 68 -20 30 -55 28 -105
-5 -58 -38 -148 -43 -203 -11 -55 32 -89 98 -82 157 8 58 39 111 83 141 29 20
49 25 99 25 55 0 68 -4 110 -33 40 -29 51 -32 71 -23 13 6 29 22 35 36 16 35
-12 71 -84 109 -59 30 -159 43 -208 27z"/>
<path d="M2126 888 c-13 -19 -14 -25 -2 -43 17 -26 49 -31 70 -10 20 21 20 39
0 59 -22 22 -50 20 -68 -6z"/>
<path d="M764 855 c-15 -23 -15 -27 0 -50 28 -42 96 -24 96 25 0 49 -68 67
-96 25z"/>
<path d="M1120 781 c-129 -42 -188 -124 -178 -248 10 -116 107 -203 228 -203
65 0 131 29 164 73 l20 27 -22 22 -22 22 -53 -27 c-90 -45 -175 -28 -212 42
-39 77 10 178 98 202 36 10 46 8 104 -22 l64 -32 22 21 c20 21 21 24 7 49 -29
52 -156 95 -220 74z"/>
<path d="M760 718 c-19 -20 -20 -34 -20 -210 l0 -187 -29 5 c-22 5 -32 1 -47
-18 -14 -16 -27 -22 -48 -20 -18 2 -40 -4 -56 -17 -16 -11 -39 -23 -53 -26
-50 -13 -62 -39 -65 -141 -3 -64 0 -94 7 -94 7 0 11 31 11 88 0 99 14 132 57
132 15 0 36 11 50 26 23 25 34 26 73 10 10 -4 19 2 25 16 11 25 51 36 68 19 6
-6 15 -11 19 -11 4 0 8 92 8 203 0 193 1 205 21 223 19 17 23 17 47 3 l27 -15
5 -272 5 -272 52 35 c73 49 113 44 113 -15 0 -22 -16 -39 -80 -89 -44 -34 -80
-66 -80 -72 0 -5 41 22 90 62 95 75 105 93 74 137 -21 30 -65 29 -112 -3 l-37
-25 -3 254 -2 255 -27 20 c-33 27 -67 27 -93 -1z"/>
<path d="M2175 266 c-11 -8 -18 -26 -18 -46 0 -38 23 -60 64 -60 30 0 59 31
59 62 0 45 -66 73 -105 44z"/>
<path d="M2456 258 c-9 -12 -16 -29 -16 -38 0 -9 7 -26 16 -38 31 -45 104 -17
104 40 0 53 -74 79 -104 36z"/>
</g>
</svg>
