<svg id="_x31__x2C_5" height="512" viewBox="0 0 24 24" width="512" xmlns="http://www.w3.org/2000/svg"><path d="m18.62 9.75-1.74 11.5h-4.88v-11.5z" fill="#90a4ae"/><path d="m7.12 21.25h-3.37c-.48 0-.89-.34-.98-.8l-2-9.5c-.01-.07-.02-.13-.02-.2 0-.55.45-1 1-1h3.63z" fill="#90a4ae"/><path d="m23.25 10.75c0 .07-.01.13-.02.2l-2 9.5c-.09.46-.5.8-.98.8h-3.37l1.74-11.5h3.63c.55 0 1 .45 1 1z" fill="#cfd8dc"/><path d="m12 9.75v11.5h-4.88l-1.74-11.5z" fill="#cfd8dc"/><path d="m20.25 12.75c-1.23 0-2.29.74-2.75 1.79-.46-1.05-1.52-1.79-2.75-1.79-1.65 0-3 1.34-3 2.99 0 3.24 5.75 7.51 5.75 7.51s5.75-4.27 5.75-7.51c0-1.65-1.35-2.99-3-2.99z" fill="#f44336"/><path d="m17.5 24c-.157 0-.314-.049-.447-.148-.62-.461-6.053-4.602-6.053-8.114 0-2.061 1.683-3.738 3.75-3.738 1.063 0 2.054.446 2.75 1.194.696-.748 1.687-1.194 2.75-1.194 2.067 0 3.75 1.677 3.75 3.738 0 3.512-5.433 7.653-6.053 8.114-.133.099-.29.148-.447.148zm-2.75-10.5c-1.24 0-2.25 1.004-2.25 2.238 0 2.138 3.276 5.19 5 6.564 1.724-1.374 5-4.426 5-6.564 0-1.234-1.01-2.238-2.25-2.238-.897 0-1.707.527-2.063 1.342-.238.548-1.137.548-1.375 0-.355-.815-1.165-1.342-2.062-1.342z"/><path d="m10.78 22h-7.03c-.834 0-1.556-.591-1.716-1.404l-1.999-9.491c-.025-.17-.035-.256-.035-.355 0-.965.785-1.75 1.75-1.75h11.26c.414 0 .75.336.75.75s-.336.75-.75.75h-11.26c-.136 0-.25.114-.25.25l2.004 9.546c.023.122.127.204.246.204h7.03c.414 0 .75.336.75.75s-.336.75-.75.75z"/><path d="m23.25 7h-22.5c-.414 0-.75-.336-.75-.75s.336-.75.75-.75h22.5c.414 0 .75.336.75.75s-.336.75-.75.75z"/><path d="m12 7c-.187 0-.373-.069-.518-.208-.3-.286-.311-.761-.025-1.061l5.25-5.5c.286-.3.763-.311 1.061-.024.3.286.311.761.025 1.061l-5.25 5.5c-.147.154-.346.232-.543.232z"/><path d="m7.499 22c-.357 0-.675-.257-.738-.622l-2-11.5c-.071-.408.203-.796.61-.867.412-.073.797.202.868.61l2 11.5c.07.408-.203.796-.61.867-.044.009-.087.012-.13.012z"/></svg>